<svg width="122" height="87" version="1.1" xmlns="http://www.w3.org/2000/svg" desc="Created with imagetracer.js version 1.2.6" ><path fill="rgb(0,0,0)" stroke="rgb(0,0,0)" stroke-width="1" opacity="0" d="M 0 0 L 40.5 0 L 41 2.5 L 0.5 84 L 0 0 Z " /><path fill="rgb(0,0,0)" stroke="rgb(0,0,0)" stroke-width="1" opacity="0" d="M 54.5 0 L 67 0.5 L 60.5 12 L 54.5 0 Z " /><path fill="rgb(0,0,0)" stroke="rgb(0,0,0)" stroke-width="1" opacity="0" d="M 80 0 L 122 0 L 122 84.5 L 121 84.5 L 80 0 Z " /><path fill="rgb(0,0,0)" stroke="rgb(0,0,0)" stroke-width="1" opacity="0" d="M 73.5 13 L 110 86.5 L 96 87 L 96 84.5 L 67 25.5 L 73.5 13 Z " /><path fill="rgb(0,0,0)" stroke="rgb(0,0,0)" stroke-width="1" opacity="0" d="M 47 14 Q 49.7 12.9 49 15.5 L 54 24.5 L 54 27.5 L 25 87 L 12.5 87 L 12 85.5 L 47 14 Z " /><path fill="rgb(0,0,0)" stroke="rgb(0,0,0)" stroke-width="1" opacity="0" d="M 60.5 39 L 84 87 L 37 86.5 L 60.5 39 Z " /><path fill="rgb(128,163,192)" stroke="rgb(128,163,192)" stroke-width="1" opacity="1" d="M 41.5 0 L 54 0.5 L 41.5 1 L 41.5 0 Z " /><path fill="rgb(128,163,192)" stroke="rgb(128,163,192)" stroke-width="1" opacity="1" d="M 67.5 0 L 80 0.5 L 67.5 1 L 66.5 2 L 67.5 0 Z " /><path fill="rgb(128,163,192)" stroke="rgb(128,163,192)" stroke-width="1" opacity="1" d="M 61.5 11 L 60.5 13 L 61.5 11 Z " /><path fill="rgb(128,163,192)" stroke="rgb(128,163,192)" stroke-width="1" opacity="1" d="M 71.5 16 L 71 17.5 L 70.5 19 L 70 17.5 L 71.5 16 Z " /><path fill="rgb(128,163,192)" stroke="rgb(128,163,192)" stroke-width="1" opacity="1" d="M 65.5 48 L 67 50.5 L 66 50.5 L 65.5 48 Z " /><path fill="rgb(128,163,192)" stroke="rgb(128,163,192)" stroke-width="1" opacity="1" d="M 25.5 85 L 26.5 86 L 36.5 86 L 38 85.5 L 36.5 87 L 25 87 L 25.5 85 Z " /><path fill="rgb(128,163,192)" stroke="rgb(128,163,192)" stroke-width="1" opacity="1" d="M 121.5 85 L 122 87 L 110 86.5 L 120.5 86 L 121.5 85 Z " /><path fill="rgb(128,163,192)" stroke="rgb(128,163,192)" stroke-width="1" opacity="1" d="M 0.5 86 L 12 86.5 L 0.5 87 L 0.5 86 Z " /><path fill="rgb(128,163,192)" stroke="rgb(128,163,192)" stroke-width="1" opacity="1" d="M 84.5 86 L 96 86.5 L 84.5 87 L 84.5 86 Z " /><path fill="rgb(76,138,193)" stroke="rgb(76,138,193)" stroke-width="1" opacity="1" d="M 43.5 2 Q 49.8 0.2 51.5 3 Q 52.8 0.7 54 3.5 L 59 13.5 L 58.5 15 L 60.5 16 L 62 13.5 L 61.5 12 L 63 15 L 65 15.5 L 65 17.5 L 66 27.5 L 63.5 31 Q 60.5 31.5 62 24.5 L 58 22.5 L 63 19.5 L 61.5 19 L 59.5 20 L 56.5 14 L 56 16.5 L 57 18.5 L 55.5 21 L 55 19 L 52 17.5 L 53 14.5 L 52 12.5 L 53 10.5 L 51 11.5 L 50.5 13 L 47 11 L 46.5 13 L 44 12 Q 45 15 42 14 Q 40.9 11.3 43.5 12 L 43 10.5 L 41 5.5 L 43.5 2 Z M 47 3 L 43 7 Q 43 11 46 11 L 47 11 L 47 7 L 49 7 L 50 8 L 49 5 Q 50 2 47 3 Z M 54 12 Q 52 15 55 14 L 54 12 Z M 63 15 L 61 18 L 63 17 L 63 15 Z M 55 16 L 54 18 L 56 19 L 55 16 Z " /><path fill="rgb(76,138,193)" stroke="rgb(76,138,193)" stroke-width="1" opacity="1" d="M 68.5 2 L 70.5 5 L 73 5 Q 71.9 2.3 74.5 3 L 76.5 2 L 79 2.5 L 79 4.5 L 81.5 10 L 83 9.5 L 85 16.5 L 83 19.5 L 84 22.5 L 82.5 26 L 79 20.5 L 81 20.5 L 83 17.5 L 84 15 L 82 15 Q 83.5 18.7 80.5 18 Q 78.8 20.8 77 16.5 L 76 14.5 L 78 14.5 Q 79.1 11.2 76.5 12 L 73 12.5 L 73.5 11 Q 71.3 10.3 72 12.5 L 67.5 20 L 67.5 18 Q 65.3 18.8 66 16.5 L 67 10 Q 64.3 11.1 65 8.5 L 68 6.5 L 66 6 Q 64.5 2.3 67.5 3 L 68.5 2 Z M 76 5 L 74 7 L 77 11 L 78 9 L 77 7 Q 78 4 76 5 Z M 70 6 Q 67 8 70 9 L 73 9 L 70 6 Z " /><path fill="rgb(76,138,193)" stroke="rgb(76,138,193)" stroke-width="1" opacity="1" d="M 39.5 8 L 41 10.5 L 39 11 L 39.5 14 L 40.5 12 L 44 17.5 Q 42.8 20.3 41.5 18 L 40 18.5 L 42 21.5 L 40 26 Q 37 24.8 38 28.5 L 35 37 Q 32.3 35.9 33 38.5 L 31.5 42 L 31 38 L 27.5 37 L 26 37.5 L 27 35.5 L 26.5 34 L 31 35 L 29.5 31 L 28.5 33 L 28 31.5 L 31.5 26 L 34 27 L 34.5 29 L 35 26 Q 32 27.3 33 23.5 L 34.5 20 L 35 24 Q 38.7 25.4 37 19.5 L 36 16.5 L 36.5 15 Q 37.8 17.3 39 14.5 L 38 11.5 L 39.5 8 Z M 31 29 L 31 31 L 34 31 L 31 29 Z " /><path fill="rgb(76,138,193)" stroke="rgb(76,138,193)" stroke-width="1" opacity="1" d="M 87.5 23 L 88 24.5 L 87 26.5 L 88 30.5 L 86 31.5 L 85.5 30 L 84 30.5 L 82 27.5 L 85 26.5 L 87.5 23 Z " /><path fill="rgb(76,138,193)" stroke="rgb(76,138,193)" stroke-width="1" opacity="1" d="M 56.5 24 L 58 25.5 L 59 32 L 62 33.5 Q 61.3 35.8 63.5 35 L 66 34 L 67.5 31 L 67 32.5 L 67.5 34 Q 68.8 31.7 70 34.5 L 69.5 38 L 68.5 34 L 67 36.5 L 69.5 42 L 72 40.5 L 76 50 Q 73.3 48.9 74 51.5 L 76 51.5 L 76.5 54 L 77.5 52 L 80 59 Q 83.7 57.6 82 63.5 L 84 63.5 L 86 70.5 L 86 72.5 Q 85.3 74.8 87.5 74 L 90 75 L 91 77.5 L 91 79.5 Q 90.5 84 94 84.5 L 92.5 85 L 90 84.5 Q 90.8 82.3 88.5 83 Q 86.3 87.3 84 82.5 L 84.5 80 L 85.5 83 L 86 79 Q 89.8 80.5 89 77.5 L 87.5 75 L 86.5 78 L 82 74.5 L 83 78.5 L 82 78.5 L 80 75.5 L 81 71.5 L 80 71.5 L 79.5 73 L 76 67.5 L 76 64.5 L 77 64.5 L 77.5 68 L 79 67.5 L 79.5 70 L 81 67.5 L 80 63.5 L 81 61 Q 78 59.8 79 63.5 L 77 62.5 L 76.5 60 L 75.5 63 L 74 59 Q 71.3 60.1 72 57.5 L 74 57.5 L 75 54.5 L 73.5 52 L 71.5 56 L 70 53.5 L 71 50.5 L 68 49.5 L 69 46 L 66 46 Q 67.5 42.3 64.5 43 L 64.5 42 Q 68.7 43.3 67 38.5 L 64 39.5 L 63.5 37 L 61.5 40 L 60.5 37 L 49.5 57 L 49 54 Q 44.9 55.3 46 52 L 48 51.5 Q 46.5 48.5 45 51.5 L 44 56 L 41.5 57 L 42 55.5 L 46 49.5 L 46.5 46 L 47.5 50 L 48.5 42 L 50.5 42 Q 52.8 42.8 52 40.5 L 53 37.5 L 52 34.5 L 53 32 L 56 30.5 L 55 27.5 L 57 26.5 L 56.5 24 Z M 53 35 L 53 37 L 55 36 L 53 35 Z M 58 36 L 56 40 L 57 41 L 60 37 L 58 36 Z M 55 39 L 54 42 L 50 45 L 53 49 L 54 46 L 52 46 L 54 43 L 54 45 L 55 45 L 55 39 Z M 69 43 L 68 45 L 71 46 L 69 43 Z M 72 46 L 71 49 L 73 50 L 72 46 Z M 50 49 Q 49 52 52 51 Q 53 48 50 49 Z M 50 51 L 49 54 L 50 54 L 50 51 Z M 77 58 Q 76 61 79 60 Q 80 57 77 58 Z M 83 67 L 83 69 Q 82 71 85 70 L 84 69 Q 85 66 83 67 Z M 82 69 L 81 71 L 83 72 L 82 69 Z M 90 79 L 89 82 L 90 82 L 90 79 Z " /><path fill="rgb(76,138,193)" stroke="rgb(76,138,193)" stroke-width="1" opacity="1" d="M 90.5 26 L 93 30.5 L 91 31 L 90.5 28 L 89.5 30 L 89 28.5 L 90.5 26 Z " /><path fill="rgb(76,138,193)" stroke="rgb(76,138,193)" stroke-width="1" opacity="1" d="M 93.5 32 L 94 36 Q 97 34.8 96 38.5 L 98 40.5 L 100 47.5 L 97 45.5 L 95.5 43 L 95 46.5 L 96 49 L 98 49.5 L 96.5 53 Q 92.3 51.3 95 49.5 L 94.5 48 L 93 48.5 L 92 42 Q 89.3 43.1 90 40.5 L 88.5 36 L 87.5 38 L 87 36.5 Q 88.3 33.8 89.5 36 L 92 37.5 L 93 42 L 95 42 L 95 37 Q 90.9 38.3 93.5 32 Z " /><path fill="rgb(76,138,193)" stroke="rgb(76,138,193)" stroke-width="1" opacity="1" d="M 50.5 38 L 51 39.5 L 49 40.5 L 50.5 38 Z " /><path fill="rgb(76,138,193)" stroke="rgb(76,138,193)" stroke-width="1" opacity="1" d="M 24.5 39 L 27 39.5 L 29 42.5 L 28.5 44 L 31 44.5 L 29.5 47 L 26 44.5 L 26 47 Q 29 45.8 28 49.5 L 27 49.5 L 24.5 45 L 22 49.5 L 25 51 L 25.5 49 L 26 51.5 L 26 53.5 Q 26.7 56.1 24 55 L 24 58 L 22 58 L 22 61.5 L 21 61.5 L 19.5 59 L 19 60.5 Q 21.3 61.7 20 66.5 L 17 67.5 L 18 70.5 L 15.5 74 L 14.5 67 L 10.5 69 L 12 64.5 L 12.5 63 L 13 65 L 15.5 66 L 16 64.5 Q 13 63.3 14 59 Q 18.5 60.8 17 55.5 L 18.5 53 L 19 57 L 21.5 58 L 22 52.5 L 20 47.5 L 22 47.5 L 21 45.5 L 23 45.5 L 22 43.5 L 25 42.5 L 24.5 39 Z M 18 59 L 17 63 L 18 63 L 18 59 Z " /><path fill="rgb(76,138,193)" stroke="rgb(76,138,193)" stroke-width="1" opacity="1" d="M 99.5 50 L 102 50.5 L 101 54.5 L 104 55 L 104.5 58 L 106 57.5 L 111 66.5 L 107 67 Q 108 61.4 103.5 60 L 103 61.5 L 104 63.5 L 103 67 L 106 68.5 L 105 71 L 103 70.5 L 104 68.5 L 102 68.5 L 101 65.5 L 103 62.5 L 100 61.5 L 99.5 60 L 98 60.5 L 98 58.5 L 99.5 50 Z M 99 55 L 99 59 L 101 60 Q 103 54 99 55 Z " /><path fill="rgb(76,138,193)" stroke="rgb(76,138,193)" stroke-width="1" opacity="1" d="M 46.5 56 Q 48.8 55.3 48 57.5 L 45 63.5 L 46 66 Q 43.3 64.9 44 67.5 Q 40.3 71.8 39.5 79 L 38.5 77 L 37 77.5 Q 37.8 75.3 35.5 76 L 34 76.5 L 35 74.5 L 33 74 L 34.5 80 L 35.5 78 L 38 81.5 L 33 85 L 30.5 80 L 29.5 82 L 29 80.5 L 35 71.5 L 40.5 58 L 41.5 60 L 42.5 58 L 45 59.5 L 46.5 56 Z M 42 60 Q 41 63 44 62 Q 45 59 42 60 Z M 41 65 L 39 67 L 40 71 L 42 70 Q 43 67 41 68 L 41 67 L 41 65 Z M 38 67 L 38 74 L 40 75 Q 41 70 38 71 L 38 67 Z M 35 72 L 35 74 L 37 75 Q 38 71 35 72 Z " /><path fill="rgb(76,138,193)" stroke="rgb(76,138,193)" stroke-width="1" opacity="1" d="M 48.5 59 L 48 60.5 L 47.5 62 L 47 60.5 L 48.5 59 Z " /><path fill="rgb(76,138,193)" stroke="rgb(76,138,193)" stroke-width="1" opacity="1" d="M 108.5 69 Q 111.1 68.2 110 71.5 L 111 74 Q 113.7 75.1 113 72.5 L 114 72.5 L 116 79.5 L 115 79.5 Q 115.8 76.9 112.5 78 L 111 81.5 L 112 81.5 Q 111.3 79.3 113.5 80 L 118 81 L 117.5 85 L 113.5 84 L 111 85 L 111 82 Q 108 83.3 109 79.5 L 112 77.5 L 108.5 75 L 106 76.5 L 106 74.5 L 108.5 69 Z M 112 82 L 112 84 L 114 83 L 112 82 Z " /><path fill="rgb(76,138,193)" stroke="rgb(76,138,193)" stroke-width="1" opacity="1" d="M 10.5 70 L 11 71.5 L 9 72.5 L 10.5 70 Z " /><path fill="rgb(76,138,193)" stroke="rgb(76,138,193)" stroke-width="1" opacity="1" d="M 11.5 73 L 14 77.5 L 13 77.5 L 12.5 76 L 12 79 Q 8.7 80.3 10 75.5 L 11.5 73 Z " /><path fill="rgb(76,138,193)" stroke="rgb(76,138,193)" stroke-width="1" opacity="1" d="M 8.5 74 L 7 76.5 L 7.5 78 L 9 77.5 L 7 82.5 L 8 82.5 L 9.5 80 L 9 81.5 L 7.5 84 Q 1.8 85.6 4 80 L 6 79.5 L 5 77.5 L 6 75 L 8.5 74 Z " /><path fill="rgb(73,129,177)" stroke="rgb(73,129,177)" stroke-width="1" opacity="1" d="M 41 1 L 50 1.5 L 42.5 2 L 41 3.5 L 37 13.5 L 38 15.5 L 37 15.5 L 36.5 14 L 35 17.5 L 35.5 19 Q 34.3 16.8 33 19.5 L 33 22.5 L 17.5 52 L 17 50.5 L 41 1 Z " /><path fill="rgb(73,129,177)" stroke="rgb(73,129,177)" stroke-width="1" opacity="1" d="M 51.5 1 Q 55.9 -0.5 55 2.5 L 60.5 14 L 65.5 5 L 66 6.5 L 63 12.5 L 64 14.5 L 62.5 17 L 62 15.5 L 63 13.5 L 60.5 15 L 59 13.5 L 54 4.5 L 54 2 Q 50.7 2.7 51.5 1 Z " /><path fill="rgb(73,129,177)" stroke="rgb(73,129,177)" stroke-width="1" opacity="1" d="M 67.5 1 L 79.5 1 L 81 2.5 L 87 15.5 L 85 14.5 L 78.5 2 L 70.5 2 L 69.5 3 L 67.5 3 L 65.5 4 L 67.5 1 Z " /><path fill="rgb(73,129,177)" stroke="rgb(73,129,177)" stroke-width="1" opacity="1" d="M 47.5 11 L 50 12.5 L 50.5 14 L 52.5 11 L 52 12.5 L 53 15.5 L 52 18.5 L 56 26.5 L 55 28.5 Q 57.2 29.8 54.5 31 Q 52.3 30.3 53 32.5 L 47 44.5 L 47.5 46 L 46 45.5 L 45 50.5 L 46 52.5 L 44.5 55 L 44 53.5 L 45 51.5 Q 41.5 50 44 48.5 L 55 25.5 L 49 14.5 L 49 12 L 47.5 11 Z " /><path fill="rgb(73,129,177)" stroke="rgb(73,129,177)" stroke-width="1" opacity="1" d="M 73.5 11 L 75.5 14 L 76.5 12 L 77.5 14 Q 75.3 13.3 76 15.5 L 82.5 28 L 84 27.5 L 83 29.5 L 87.5 38 L 89 37.5 L 88 39.5 L 93 48.5 L 91 49 L 73.5 12 L 66.5 26 L 66 24.5 L 67 22.5 L 66.5 21 Q 68.8 21.8 68 19.5 L 70 14.5 L 73.5 11 Z " /><path fill="rgb(73,129,177)" stroke="rgb(73,129,177)" stroke-width="1" opacity="1" d="M 45.5 12 L 47 14.5 L 41.5 25 L 41 23.5 L 44 16.5 L 43.5 15 Q 44.7 17.3 46 14.5 L 45.5 12 Z " /><path fill="rgb(73,129,177)" stroke="rgb(73,129,177)" stroke-width="1" opacity="1" d="M 54.5 16 L 57 19.5 L 54 17.5 L 54.5 16 Z " /><path fill="rgb(73,129,177)" stroke="rgb(73,129,177)" stroke-width="1" opacity="1" d="M 87.5 17 L 89 19.5 L 87.5 19 L 86 18.5 L 87.5 17 Z " /><path fill="rgb(73,129,177)" stroke="rgb(73,129,177)" stroke-width="1" opacity="1" d="M 89.5 21 L 97 35.5 L 95 34.5 L 89 22.5 L 89.5 21 Z " /><path fill="rgb(73,129,177)" stroke="rgb(73,129,177)" stroke-width="1" opacity="1" d="M 40.5 26 L 40 27.5 L 33.5 41 L 33 39.5 L 40.5 26 Z " /><path fill="rgb(73,129,177)" stroke="rgb(73,129,177)" stroke-width="1" opacity="1" d="M 66.5 27 Q 69.1 26.2 68 29.5 L 96 85.5 L 94 86 L 82 59 L 80 58.5 L 81 57.5 L 78 54.5 L 77.5 52 L 76 52.5 Q 79.5 51 77 49.5 L 74 45.5 L 69.5 34 L 68 34.5 L 69 32.5 L 67.5 30 L 66 30.5 L 67 28.5 L 66.5 27 Z " /><path fill="rgb(73,129,177)" stroke="rgb(73,129,177)" stroke-width="1" opacity="1" d="M 97.5 37 L 108 57.5 L 108 60.5 L 113 67.5 L 116 76.5 L 121 83.5 L 121 86 L 109.5 86 L 109 84.5 L 106 78.5 L 108.5 75 L 108 76.5 L 107 78.5 L 109.5 83 L 111 82.5 L 111.5 85 L 120 85 Q 114.6 78.1 112 67.5 L 107 60.5 L 100 43 Q 97 44.3 98 40.5 L 97.5 37 Z " /><path fill="rgb(73,129,177)" stroke="rgb(73,129,177)" stroke-width="1" opacity="1" d="M 59.5 39 L 60 40.5 L 36.5 86 L 31 85.5 Q 35.6 86.1 37 83.5 L 45 68.5 Q 42.5 67 46 65.5 L 47 62.5 L 45 62.5 L 46.5 60 L 47.5 62 L 51 56.5 Q 48.5 55 52 53.5 Q 54.2 44.7 59.5 39 Z " /><path fill="rgb(73,129,177)" stroke="rgb(73,129,177)" stroke-width="1" opacity="1" d="M 63.5 39 L 64 41.5 L 69 50.5 L 69 52.5 L 85.5 85 L 87.5 84 L 88.5 86 Q 83.1 87.9 84 84.5 L 62 40.5 L 63.5 39 Z " /><path fill="rgb(73,129,177)" stroke="rgb(73,129,177)" stroke-width="1" opacity="1" d="M 32.5 42 L 33 43.5 L 31 44.5 L 32.5 42 Z " /><path fill="rgb(73,129,177)" stroke="rgb(73,129,177)" stroke-width="1" opacity="1" d="M 53.5 42 L 54.5 44 L 52 43.5 L 53.5 42 Z " /><path fill="rgb(73,129,177)" stroke="rgb(73,129,177)" stroke-width="1" opacity="1" d="M 30.5 46 L 31 47.5 L 29 48.5 L 30.5 46 Z " /><path fill="rgb(73,129,177)" stroke="rgb(73,129,177)" stroke-width="1" opacity="1" d="M 96 46 Q 98.7 44.9 98 47.5 L 98.5 49 L 96 48 L 96 46 Z " /><path fill="rgb(73,129,177)" stroke="rgb(73,129,177)" stroke-width="1" opacity="1" d="M 28.5 50 L 29 51.5 L 17.5 74 L 17 72.5 L 23 60.5 L 22.5 59 L 24 59.5 L 28.5 50 Z " /><path fill="rgb(73,129,177)" stroke="rgb(73,129,177)" stroke-width="1" opacity="1" d="M 92.5 50 L 95 51.5 L 95 53.5 L 95.5 55 L 97 54.5 L 96 56.5 L 106 76.5 L 105 76.5 L 92.5 50 Z " /><path fill="rgb(73,129,177)" stroke="rgb(73,129,177)" stroke-width="1" opacity="1" d="M 42.5 51 L 43 53.5 L 38 61.5 L 37 66.5 L 28 82.5 L 28 85 L 30 85.5 L 26 86 L 42.5 51 Z " /><path fill="rgb(73,129,177)" stroke="rgb(73,129,177)" stroke-width="1" opacity="1" d="M 16.5 53 L 17 54.5 L 13 61.5 L 14 63.5 L 12 63.5 L 11 65.5 L 11.5 67 L 9.5 68 L 10 66.5 L 16.5 53 Z " /><path fill="rgb(73,129,177)" stroke="rgb(73,129,177)" stroke-width="1" opacity="1" d="M 104 62 Q 107 61 106 64 Q 103 65 104 62 Z " /><path fill="rgb(73,129,177)" stroke="rgb(73,129,177)" stroke-width="1" opacity="1" d="M 8.5 69 L 9 70.5 L 5.5 76 L 6 74.5 L 8.5 69 Z " /><path fill="rgb(73,129,177)" stroke="rgb(73,129,177)" stroke-width="1" opacity="1" d="M 16.5 75 L 16 76.5 L 12 86 L 0 85.5 L 4.5 77 L 5 78.5 L 2 85 L 10 84.5 L 9.5 83 Q 10.8 85.3 12 82.5 L 16.5 75 Z " /><path fill="rgb(73,129,177)" stroke="rgb(73,129,177)" stroke-width="1" opacity="1" d="M 91.5 84 L 92.5 86 L 90 85.5 L 91.5 84 Z " /><path fill="rgb(77,134,186)" stroke="rgb(77,134,186)" stroke-width="1" opacity="1" d="M 50.5 1 L 51.5 3 L 50.5 1 Z " /><path fill="rgb(77,134,186)" stroke="rgb(77,134,186)" stroke-width="1" opacity="1" d="M 42.5 2 L 42 3.5 L 41 7.5 L 43 8.5 Q 42.5 3.5 46.5 3 Q 49.8 1.9 49 4.5 L 49.5 8 L 47 7 L 47 11 L 45.5 11 L 43 9.5 L 46 14.5 Q 43.5 19.5 41 14.5 L 44 14 Q 45.3 10.7 40.5 12 L 40.5 8 L 39 7.5 L 42.5 2 Z " /><path fill="rgb(77,134,186)" stroke="rgb(77,134,186)" stroke-width="1" opacity="1" d="M 72.5 2 L 75 2.5 L 72.5 3 L 72.5 2 Z " /><path fill="rgb(77,134,186)" stroke="rgb(77,134,186)" stroke-width="1" opacity="1" d="M 77.5 2 L 80 3 L 82 9.5 L 81 9.5 L 77.5 2 Z " /><path fill="rgb(77,134,186)" stroke="rgb(77,134,186)" stroke-width="1" opacity="1" d="M 69.5 3 L 73 4.5 L 70.5 5 L 69.5 3 Z " /><path fill="rgb(77,134,186)" stroke="rgb(77,134,186)" stroke-width="1" opacity="1" d="M 75.5 5 Q 77.8 4.3 77 6.5 L 78 8.5 L 75.5 12 L 75 9.5 L 74 6.5 L 75.5 5 Z " /><path fill="rgb(77,134,186)" stroke="rgb(77,134,186)" stroke-width="1" opacity="1" d="M 66.5 6 L 68.5 7 Q 70 4.5 71.5 8 L 73 8.5 L 69.5 9 L 66.5 7 L 65 7.5 L 66.5 6 Z " /><path fill="rgb(77,134,186)" stroke="rgb(77,134,186)" stroke-width="1" opacity="1" d="M 64.5 9 L 67 10 L 66 18 L 68 18.5 L 67.5 21 L 65 19.5 L 64 16.5 L 64 14.5 L 63 10.5 L 64.5 9 Z " /><path fill="rgb(77,134,186)" stroke="rgb(77,134,186)" stroke-width="1" opacity="1" d="M 52.5 10 L 51.5 12 L 52.5 10 Z " /><path fill="rgb(77,134,186)" stroke="rgb(77,134,186)" stroke-width="1" opacity="1" d="M 37.5 12 L 38.5 14 L 40 13.5 L 38.5 15 L 36 14.5 L 37.5 12 Z " /><path fill="rgb(77,134,186)" stroke="rgb(77,134,186)" stroke-width="1" opacity="1" d="M 53.5 12 L 54.5 14 Q 51.7 14.7 53.5 12 Z " /><path fill="rgb(77,134,186)" stroke="rgb(77,134,186)" stroke-width="1" opacity="1" d="M 50.5 13 L 52 15.5 L 51 15.5 L 50.5 13 Z " /><path fill="rgb(77,134,186)" stroke="rgb(77,134,186)" stroke-width="1" opacity="1" d="M 60.5 13 Q 58.9 14.8 62 16.5 L 61.5 18 L 59.5 15 L 58 14.5 L 60.5 13 Z " /><path fill="rgb(77,134,186)" stroke="rgb(77,134,186)" stroke-width="1" opacity="1" d="M 56.5 14 L 58 16.5 L 55.5 18 L 56 16.5 L 56.5 14 Z " /><path fill="rgb(77,134,186)" stroke="rgb(77,134,186)" stroke-width="1" opacity="1" d="M 77.5 14 L 76.5 16 L 77.5 14 Z " /><path fill="rgb(77,134,186)" stroke="rgb(77,134,186)" stroke-width="1" opacity="1" d="M 34.5 15 L 36.5 18 Q 34.3 18.8 35 16.5 L 34.5 15 Z " /><path fill="rgb(77,134,186)" stroke="rgb(77,134,186)" stroke-width="1" opacity="1" d="M 82 15 Q 84.7 13.9 84 16.5 L 85 16.5 L 85.5 15 L 87 18 Q 84.3 16.9 85 19.5 L 86.5 19 L 89 20.5 L 91 25.5 L 89 29.5 L 90 29.5 L 90.5 28 L 91 31 L 94 31.5 L 92 32.5 L 93 37 L 95 37 L 95 42 Q 92.3 43.1 93 40.5 L 90.5 36 L 88.5 37 L 86 35.5 L 86.5 34 Q 84.3 34.8 85 32.5 Q 82.8 31.3 85.5 30 L 86.5 32 Q 88.8 31.3 88 27.5 L 87 25 Q 84 24 85 27 L 81 27 L 81.5 24 L 82.5 26 L 84 20.5 Q 81 19.3 82 15 Z " /><path fill="rgb(77,134,186)" stroke="rgb(77,134,186)" stroke-width="1" opacity="1" d="M 79.5 16 L 81 20.5 L 79 21.5 L 80 20.5 L 77.5 17 L 79 17.5 L 79.5 16 Z " /><path fill="rgb(77,134,186)" stroke="rgb(77,134,186)" stroke-width="1" opacity="1" d="M 40.5 18 L 42.5 19 L 44 18.5 L 41 20.5 L 40.5 18 Z " /><path fill="rgb(77,134,186)" stroke="rgb(77,134,186)" stroke-width="1" opacity="1" d="M 52.5 18 L 55 19 L 55.5 21 L 57.5 18 L 60 18.5 L 59.5 20 L 62.5 19 L 61.5 21 L 58 22.5 L 60.5 23 L 62 22.5 L 62 24.5 Q 60.5 31.5 63.5 31 L 65 28 Q 67.7 26.9 67 29.5 L 67.5 32 L 69 32.5 L 67.5 35 Q 70.1 34.2 69 37.5 L 72 36.5 L 71 38.5 Q 73.8 40.3 69.5 42 L 70 40.5 L 69.5 39 L 68 39.5 L 65.5 34 L 62 35 L 60.5 32 Q 58.3 32.8 59 30.5 L 56.5 24 L 54 25.5 L 55 22.5 L 52.5 18 Z " /><path fill="rgb(77,134,186)" stroke="rgb(77,134,186)" stroke-width="1" opacity="1" d="M 33 19 Q 39.4 16.9 37 24 Q 33.7 25.3 35 20.5 L 34 20.5 L 33 26 L 35 26.5 L 32.5 27 L 30 26.5 Q 33.9 24.4 33 19 Z " /><path fill="rgb(77,134,186)" stroke="rgb(77,134,186)" stroke-width="1" opacity="1" d="M 40.5 24 L 41 25.5 L 36.5 33 L 35.5 31 L 34.5 33 L 34 31 Q 29.9 32.3 31 29 L 34.5 31 L 35 29.5 L 34.5 28 L 36.5 31 L 38 26 Q 40.8 27 40.5 24 Z " /><path fill="rgb(77,134,186)" stroke="rgb(77,134,186)" stroke-width="1" opacity="1" d="M 28.5 30 L 29.5 32 L 28.5 30 Z " /><path fill="rgb(77,134,186)" stroke="rgb(77,134,186)" stroke-width="1" opacity="1" d="M 55.5 30 L 54.5 32 L 53 31.5 L 55.5 30 Z " /><path fill="rgb(77,134,186)" stroke="rgb(77,134,186)" stroke-width="1" opacity="1" d="M 27.5 32 L 31 33 Q 32.3 36.3 27.5 35 L 26 37.5 L 27.5 37 L 31 38 L 31.5 42 L 33 37 L 35 37.5 L 30.5 44 L 28 43.5 Q 30.5 42 27 40.5 L 26.5 39 L 25 39.5 L 25 36.5 L 27.5 32 Z " /><path fill="rgb(77,134,186)" stroke="rgb(77,134,186)" stroke-width="1" opacity="1" d="M 94.5 33 L 97 38.5 L 96 38.5 Q 97 34.8 94 36 L 94.5 33 Z " /><path fill="rgb(77,134,186)" stroke="rgb(77,134,186)" stroke-width="1" opacity="1" d="M 51.5 35 L 52.5 37 L 55 35.5 L 52.5 40 Q 49.8 38.8 51.5 35 Z " /><path fill="rgb(77,134,186)" stroke="rgb(77,134,186)" stroke-width="1" opacity="1" d="M 58.5 36 L 62.5 39 L 63.5 37 L 64 38.5 L 63.5 40 L 66.5 38 L 68 42.5 L 66.5 42 L 60 39 Q 61.1 36.3 58.5 37 L 58.5 36 Z " /><path fill="rgb(77,134,186)" stroke="rgb(77,134,186)" stroke-width="1" opacity="1" d="M 57.5 38 L 59 38.5 L 57 40.5 L 58.5 43 L 56 39.5 L 57.5 38 Z " /><path fill="rgb(77,134,186)" stroke="rgb(77,134,186)" stroke-width="1" opacity="1" d="M 88.5 38 L 90 42 Q 92.7 40.9 92 43.5 L 94 43.5 L 92.5 48 L 89 42.5 L 88.5 38 Z " /><path fill="rgb(77,134,186)" stroke="rgb(77,134,186)" stroke-width="1" opacity="1" d="M 49.5 39 L 53 42.5 L 52.5 46 L 54 46.5 L 53 48.5 L 54.5 51 L 52 49.5 L 51.5 51 L 50.5 49 L 52 48.5 L 50 44.5 L 51.5 42 L 49.5 43 L 48.5 41 L 50 40.5 L 49.5 39 Z " /><path fill="rgb(77,134,186)" stroke="rgb(77,134,186)" stroke-width="1" opacity="1" d="M 54.5 39 L 55 42.5 L 54 42.5 L 54.5 39 Z " /><path fill="rgb(77,134,186)" stroke="rgb(77,134,186)" stroke-width="1" opacity="1" d="M 23.5 41 Q 25.8 40.3 25 42.5 L 27 42.5 L 26 43.5 L 29 46.5 L 29 49.5 L 27 53 L 25 52.5 L 26 49 Q 23.3 47.9 24 50.5 L 22 49.5 L 24.5 45 L 25.5 47 L 26 44.5 Q 24 40.8 22 42.5 L 23.5 41 Z M 27 47 L 27 50 L 28 50 Q 29 46 27 47 Z " /><path fill="rgb(77,134,186)" stroke="rgb(77,134,186)" stroke-width="1" opacity="1" d="M 72.5 41 L 74 44.5 L 73 44.5 L 72.5 41 Z " /><path fill="rgb(77,134,186)" stroke="rgb(77,134,186)" stroke-width="1" opacity="1" d="M 47.5 43 L 48 44.5 L 48 46.5 L 47 50.5 L 47.5 52 Q 45.3 52.8 46 50.5 L 45 47.5 L 46 47.5 L 46.5 50 L 47 46.5 L 47 44.5 L 47.5 43 Z " /><path fill="rgb(77,134,186)" stroke="rgb(77,134,186)" stroke-width="1" opacity="1" d="M 95.5 43 L 97 45.5 L 95 46.5 L 95.5 43 Z " /><path fill="rgb(77,134,186)" stroke="rgb(77,134,186)" stroke-width="1" opacity="1" d="M 99.5 43 L 106 56.5 L 104 57.5 Q 105.1 53.3 101 55 L 100 61.5 L 103 61.5 L 103.5 60 L 104.5 62 L 102 63.5 Q 102.7 66.1 100 65 L 99 60.5 L 94 52.5 L 95.5 52 L 97 52.5 L 98 49.5 L 96 48.5 L 98.5 47 L 100 47.5 L 99.5 43 Z M 100 50 Q 98 55 101 55 Q 103 54 102 51 L 100 50 Z M 99 55 L 98 59 L 99 59 L 99 55 Z " /><path fill="rgb(77,134,186)" stroke="rgb(77,134,186)" stroke-width="1" opacity="1" d="M 21.5 44 Q 23.8 43.3 23 45.5 L 21.5 48 L 20.5 46 L 22 45.5 L 21.5 44 Z " /><path fill="rgb(77,134,186)" stroke="rgb(77,134,186)" stroke-width="1" opacity="1" d="M 68.5 44 L 72 46.5 L 70.5 46 Q 68.3 45.3 69 47.5 L 71 52.5 L 69 53.5 L 68 51.5 L 70 50.5 L 68.5 48 L 67 48.5 L 66 46.5 L 69 45.5 L 68.5 44 Z " /><path fill="rgb(77,134,186)" stroke="rgb(77,134,186)" stroke-width="1" opacity="1" d="M 73.5 47 L 73 48.5 L 72.5 50 L 71.5 48 L 73.5 47 Z " /><path fill="rgb(77,134,186)" stroke="rgb(77,134,186)" stroke-width="1" opacity="1" d="M 75.5 47 L 78 50.5 Q 76.8 53.3 75.5 51 L 74 50.5 L 76 50 L 75.5 47 Z " /><path fill="rgb(77,134,186)" stroke="rgb(77,134,186)" stroke-width="1" opacity="1" d="M 94.5 48 L 96 50.5 L 94.5 50 L 92 49.5 L 94.5 48 Z " /><path fill="rgb(77,134,186)" stroke="rgb(77,134,186)" stroke-width="1" opacity="1" d="M 19.5 49 Q 22.1 48.2 21 51.5 L 22 58 Q 25 59.3 24 55.5 L 25 55.5 L 22.5 61 Q 24.2 59 20.5 57 Q 17.5 57.9 19 53.5 L 18 53.5 L 17 59 L 14 58.5 L 16 57.5 Q 13.5 56 17 54.5 L 16 52.5 L 18 52 L 19.5 49 Z " /><path fill="rgb(77,134,186)" stroke="rgb(77,134,186)" stroke-width="1" opacity="1" d="M 43.5 50 L 44 52.5 L 43 52.5 L 43.5 50 Z " /><path fill="rgb(77,134,186)" stroke="rgb(77,134,186)" stroke-width="1" opacity="1" d="M 72.5 51 L 73.5 53 L 72.5 51 Z " /><path fill="rgb(77,134,186)" stroke="rgb(77,134,186)" stroke-width="1" opacity="1" d="M 45.5 53 L 48.5 54 L 51.5 53 L 53 54.5 L 49.5 54 L 48 55.5 L 51 56.5 L 46.5 60 L 48 57.5 Q 48.8 55.3 46.5 56 L 44 58.5 L 44 60.5 L 43.5 62 L 43 60.5 Q 45.3 59.3 42.5 58 L 41.5 60 L 40 57.5 L 45 54.5 L 45.5 53 Z " /><path fill="rgb(77,134,186)" stroke="rgb(77,134,186)" stroke-width="1" opacity="1" d="M 71.5 54 L 73.5 54 Q 75.8 53.3 75 55.5 L 73.5 58 L 71 56.5 L 71.5 54 Z " /><path fill="rgb(77,134,186)" stroke="rgb(77,134,186)" stroke-width="1" opacity="1" d="M 78.5 55 L 80.5 58 L 78.5 55 Z " /><path fill="rgb(77,134,186)" stroke="rgb(77,134,186)" stroke-width="1" opacity="1" d="M 78.5 58 L 79 60 L 76.5 61 L 78.5 58 Z " /><path fill="rgb(77,134,186)" stroke="rgb(77,134,186)" stroke-width="1" opacity="1" d="M 72.5 59 Q 74.8 58.3 74 60.5 L 72.5 59 Z " /><path fill="rgb(77,134,186)" stroke="rgb(77,134,186)" stroke-width="1" opacity="1" d="M 108.5 59 L 110 61.5 L 108 60.5 L 108.5 59 Z " /><path fill="rgb(77,134,186)" stroke="rgb(77,134,186)" stroke-width="1" opacity="1" d="M 17.5 60 L 18 62.5 L 17 62.5 L 17.5 60 Z " /><path fill="rgb(77,134,186)" stroke="rgb(77,134,186)" stroke-width="1" opacity="1" d="M 19.5 60 Q 21.8 59.3 21 61.5 L 21 63.5 L 22 65.5 L 20 64.5 L 19.5 60 Z " /><path fill="rgb(77,134,186)" stroke="rgb(77,134,186)" stroke-width="1" opacity="1" d="M 39.5 60 L 39 61.5 L 38.5 63 L 38 61.5 L 39.5 60 Z " /><path fill="rgb(77,134,186)" stroke="rgb(77,134,186)" stroke-width="1" opacity="1" d="M 45.5 61 L 47 64 L 45 63.5 L 45.5 61 Z " /><path fill="rgb(77,134,186)" stroke="rgb(77,134,186)" stroke-width="1" opacity="1" d="M 79 61 Q 81.7 59.9 81 62.5 L 79 66.5 L 81 67.5 L 78.5 71 L 77.5 69 L 79 69.5 L 78.5 67 L 77 67.5 L 77 65.5 L 76.5 64 L 74 65.5 L 75 63.5 L 74.5 62 L 78.5 64 L 79 61 Z " /><path fill="rgb(77,134,186)" stroke="rgb(77,134,186)" stroke-width="1" opacity="1" d="M 82.5 61 L 83 63.5 L 82 63.5 L 82.5 61 Z " /><path fill="rgb(77,134,186)" stroke="rgb(77,134,186)" stroke-width="1" opacity="1" d="M 14.5 63 L 17.5 67 L 18.5 65 L 19 66.5 L 19 68.5 L 18.5 70 L 14.5 65 L 12.5 66 L 14.5 63 Z " /><path fill="rgb(77,134,186)" stroke="rgb(77,134,186)" stroke-width="1" opacity="1" d="M 106.5 63 L 107 67 L 112 67 L 112 69.5 L 113 74 Q 110.3 75.1 111 72.5 L 110 69 L 107 70.5 L 106 74.5 L 106.5 76 L 104 71.5 L 106 68.5 L 103 67 Q 101.3 62.9 105.5 64 L 106.5 63 Z " /><path fill="rgb(77,134,186)" stroke="rgb(77,134,186)" stroke-width="1" opacity="1" d="M 40.5 65 L 41 67 L 39 66.5 L 40.5 65 Z " /><path fill="rgb(77,134,186)" stroke="rgb(77,134,186)" stroke-width="1" opacity="1" d="M 43.5 65 L 44.5 67 L 42 66.5 L 43.5 65 Z " /><path fill="rgb(77,134,186)" stroke="rgb(77,134,186)" stroke-width="1" opacity="1" d="M 10.5 67 L 10.5 69 L 14.5 67 L 15.5 74 L 17.5 71 L 17 72.5 L 17 75 Q 14 73.8 15 77.5 L 12.5 81 Q 9.9 80.2 11 83.5 L 9.5 85 L 2 85 L 3.5 81 L 4 84 L 8 83.5 L 7 80.5 L 9 77.5 L 7 77.5 L 8 75.5 L 7 73.5 L 10.5 67 Z M 12 73 L 11 75 L 13 76 L 12 73 Z M 11 75 L 10 79 L 13 78 Q 15 79 14 77 Q 12 78 11 75 Z " /><path fill="rgb(77,134,186)" stroke="rgb(77,134,186)" stroke-width="1" opacity="1" d="M 37.5 67 L 38 71 Q 40.7 72.1 40 69.5 L 39.5 68 Q 42.8 66.9 42 69.5 L 43 69.5 Q 42.3 67.3 44.5 68 L 44 69.5 L 40.5 77 L 38 73.5 L 38.5 72 Q 35.9 71.2 37 74.5 L 35 73.5 L 34.5 72 L 33 72.5 Q 34.3 69.8 35.5 72 L 37 72 L 37.5 67 Z M 42 70 L 40 72 L 41 75 L 42 72 L 42 70 Z " /><path fill="rgb(77,134,186)" stroke="rgb(77,134,186)" stroke-width="1" opacity="1" d="M 81.5 69 L 83.5 69 L 85 69.5 L 83 70 L 82.5 72 L 81 71.5 L 80.5 75 Q 77.8 73.8 80 72.5 L 81.5 69 Z " /><path fill="rgb(77,134,186)" stroke="rgb(77,134,186)" stroke-width="1" opacity="1" d="M 86.5 70 L 87 72 L 85 71.5 L 86.5 70 Z " /><path fill="rgb(77,134,186)" stroke="rgb(77,134,186)" stroke-width="1" opacity="1" d="M 83.5 73 Q 81.7 75.5 86.5 78 L 88 74.5 L 86 73.5 L 89 73 L 88 76.5 L 89.5 79 Q 90.8 76.8 92 79.5 L 93 82.5 L 91 81.5 L 90.5 79 L 89.5 82 L 89 79 Q 84.5 77.3 86 82.5 L 85.5 85 Q 82.8 83.8 85 82.5 L 84.5 80 L 82.5 83 L 82 81.5 L 83 76.5 L 82 74.5 L 83.5 73 Z " /><path fill="rgb(77,134,186)" stroke="rgb(77,134,186)" stroke-width="1" opacity="1" d="M 33.5 74 L 34.5 77 L 37 76 L 39 80 L 33 78 L 33.5 74 Z " /><path fill="rgb(77,134,186)" stroke="rgb(77,134,186)" stroke-width="1" opacity="1" d="M 114.5 74 L 113.5 76 L 114.5 74 Z " /><path fill="rgb(77,134,186)" stroke="rgb(77,134,186)" stroke-width="1" opacity="1" d="M 108.5 76 L 114.5 78 L 117 76.5 L 115 79.5 L 118 80.5 L 114.5 81 L 112 80 Q 110.9 82.7 113.5 82 L 113.5 84 L 117 84.5 L 113.5 85 L 111 79.5 L 111.5 78 L 109 79.5 L 108.5 81 L 106 77.5 L 107.5 78 L 110 77.5 L 108.5 76 Z " /><path fill="rgb(77,134,186)" stroke="rgb(77,134,186)" stroke-width="1" opacity="1" d="M 31.5 78 L 35.5 84 L 37 83.5 L 35.5 85 L 33 83.5 Q 33.8 85.8 31.5 85 L 29.5 85 Q 26.5 85.7 28 82 L 32 82 L 32 80.5 L 30 80.5 L 31.5 78 Z " /><path fill="rgb(77,134,186)" stroke="rgb(77,134,186)" stroke-width="1" opacity="1" d="M 87.5 81 L 88 83 Q 91 81.8 90 85.5 L 88 84.5 L 87.5 81 Z " /><path fill="rgb(77,134,186)" stroke="rgb(77,134,186)" stroke-width="1" opacity="1" d="M 118.5 82 L 120 85 Q 116.5 86.1 118.5 82 Z " /></svg>